<svg xmlns="http://www.w3.org/2000/svg" xmlns:xlink="http://www.w3.org/1999/xlink" xmlns:inkscape="http://www.inkscape.org/namespaces/inkscape" version="1.1" width="375" height="375" viewBox="0 0 375 375">
<defs>
<clipPath id="clip_0">
<path transform="matrix(.24,0,0,.24,0,0)" d="M0 0H1562.5V1562.5H0Z" clip-rule="evenodd"/>
</clipPath>
<clipPath id="clip_1">
<path transform="matrix(.24,0,0,.24,0,0)" d="M0 0H1562.5V1562.5H0Z" clip-rule="evenodd"/>
</clipPath>
<clipPath id="clip_2">
<path transform="matrix(.24,0,0,.24,0,0)" d="M468.75 471.6895H1093.75V918.5645H468.75Z" clip-rule="evenodd"/>
</clipPath>
<clipPath id="clip_3">
<path transform="matrix(.24,0,0,.24,0,0)" d="M0 0H1562.5V1562.5H0Z" clip-rule="evenodd"/>
</clipPath>
</defs>
<g clip-path="url(#clip_0)">
<path transform="matrix(.75,0,0,.75,0,0)" d="M0 0H500V500H0Z" fill="#ffffff"/>
</g>
<g clip-path="url(#clip_1)">
<path transform="matrix(.75,0,0,.75,0,0)" d="M0 0H500V500H0Z"/>
</g>
<g clip-path="url(#clip_2)">
<path transform="matrix(.24030759,0,0,.24030759,110.26514,108.76371)" d="M230.46 461.32C229.51143 460.1771 227.5104 459.99763 220.9086 460.46354 213.7096 460.97157 211.9352 460.7605 208.0496 458.93415 205.57051 457.76884 203.17601 456.20774 202.7286 455.46525 201.2382 452.99186 198.3833 452.74147 194.46451 454.7407 189.0065 457.5251 181.37651 456.5491 176.7335 452.4725 172.2688 448.5525 171.2222 446.42 170.50911 439.7905L169.91492 434.2658 164.41492 434.22233C155.83292 434.15455 149.79492 432.0393 146.29192 427.87333 143.01001 423.97053 143.11392 425.35423 144.67012 406.26533 144.8736 403.7697 144.57848 403.31523 142.91472 403.56224 131.87372 405.20143 123.892719 404.1771 122.66172 400.96284 122.3043 400.02919 121.25332 398.59025 120.32612 397.76524 118.04582 395.7361 116.39702 388.20924 117.09902 383.03324 117.52297 379.90763 117.31249 378.71043 116.2938 378.45335 115.53521 378.26185 111.3146 376.96275 106.9146 375.56636 102.514598 374.17005 96.2146 372.23066 92.9146 371.25654 84.323398 368.72074 75.42059 364.88883 71.7326 362.13954 69.9827 360.83494 67.5077 359.35774 66.2326 358.85704 61.6284 357.04884 54.316598 350.99543 50.406599 345.75404 45.8014 339.58164 46.195199 340.58494 46.0067 334.54603 45.90072 331.15144 45.26246 329.27134 43.7319 327.84544 39.7939 324.17665 35.6371 312.79945 33.5439 299.96345 32.978879 296.49766 32.75589 293.03846 33.04837 292.27626 33.34083 291.51408 31.456171 286.47474 28.860272 281.07725 25.905873 274.93495 23.959872 269.39424 23.657773 266.26426 23.383233 263.42018 22.392773 260.40187 21.360672 259.26426 18.202773 255.78345 12.408172 242.36925 11.398272 236.20226 9.329172 223.56626 11.048681 215.96425 17.45877 209.40825L20.48307 206.31494 20.27927 190.28995 20.07547 174.26496 26.38917 161.76496C29.86167 154.88996 33.28647 148.91996 33.99987 148.49796 36.00277 147.31375 36.92637 139.08666 35.27927 137.10196 34.528573 136.19744 34.07477 135.41407 34.27077 135.36106 34.46677 135.30809 34.309835 132.30185 33.92202 128.68045 33.36138 123.44525 33.64767 120.57665 35.31922 114.68045 37.70832 106.25315 42.10672 97.07245 45.27092 93.90845 46.44982 92.729549 47.414319 91.18375 47.414319 90.47324 47.414319 89.76276 49.43932 87.194049 51.914319 84.765048 55.02102 81.71604 56.414319 79.52205 56.414319 77.67895 56.414319 73.532848 58.95482 68.425548 63.37512 63.684949 65.59662 61.302549 67.41432 58.555047 67.41432 57.57935 67.41432 51.11375 75.49812 38.85235 86.365329 28.83335 94.53743 21.299849 99.699329 18.52735 103.70433 19.52055 106.89373 20.31144 111.41433 23.67355 111.41433 25.25465 111.41433 25.99942 109.68423 30.13125 107.56973 34.43655 97.06873 55.81755 94.42973 64.03655 93.69873 77.64455 93.37144 83.73354 93.62677 90.968547 94.31636 95.14455 94.9629 99.06045 95.97416 105.189548 96.56356 108.76455 97.15299 112.33955 98.87596 118.18955 100.39246 121.76455 101.908969 125.33955 103.73786 129.83956 104.456668 131.76456 105.17552 133.68956 106.52637 136.38956 107.458469 137.76456 108.3906 139.13956 110.17056 142.28955 111.41396 144.76456 112.657367 147.23957 114.29116 149.62445 115.04456 150.06426 115.79801 150.50408 116.41447 151.34456 116.41447 151.93196 116.41447 152.85463 120.851268 159.23557 129.16847 170.27396 130.40787 171.91896 133.10788 175.81797 135.16847 178.93856 137.22907 182.05915 141.61498 186.94156 144.91498 189.78856 148.21498 192.63545 154.17838 198.14066 158.16698 202.02256 167.60169 211.20415 178.17598 218.55556 201.51998 232.16356 205.50138 234.48447 212.76998 239.63916 224.91498 248.75556 229.31497 252.05815 234.93997 256.09797 237.41498 257.73286 243.13208 261.50947 254.82198 274.37486 256.067 278.26087 256.4187 279.35877 257.2515 280.70878 257.9177 281.26087 260.0583 283.03498 262.551 290.99269 263.1302 297.90089 264.1197 309.7039 259.3812 319.67988 250.89019 323.67088 248.46059 324.81288 245.72739 326.88487 244.81638 328.27519 242.56748 331.70738 243.40998 338.71318 246.53557 342.57118 249.09748 345.73359 258.39158 351.98677 262.43559 353.26918 271.94929 356.28627 277.77558 365.18717 277.63258 376.48518L277.54878 383.07249 282.33796 387.68849C287.86256 393.01329 289.89295 396.53977 290.89045 402.54249 291.51203 406.28309 292.24995 407.2472 296.75874 410.21 303.17555 414.4266 310.41575 421.23399 310.41575 423.05 310.41575 423.80119 309.40324 425.36189 308.16575 426.51829 304.07466 430.3411 292.88374 430.40928 274.85276 426.72123 267.17668 425.15113 260.42277 426.10188 257.04975 429.2271 254.48494 431.60414 252.21315 438.5473 250.45354 449.38713 249.41915 455.75993 248.20894 458.06343 244.51255 460.69514 240.99825 463.19755 232.33855 463.58195 230.45955 461.31883L230.46 461.32ZM239.4478 458.2489C243.3114 456.25093 245.2569 452.2577 247.4384 441.8479 249.5209 431.9104 254.3383 422.2879 257.6794 421.3919 260.98533 420.50584 267.99143 420.63975 270.6184 421.63926 279.0889 424.86207 284.49043 426.01515 292.1344 426.23216 302.4664 426.52543 304.4154 426.1232 304.4154 423.69676 304.4154 421.03767 297.8955 415.11405 292.8464 413.18577 288.7814 411.63328 288.4582 411.22917 287.81703 406.89598 286.9868 401.28538 281.84223 392.90098 277.268 389.70497 272.6264 386.46116 272.5931 386.37345 272.97563 378.38798 273.44236 368.64048 270.8222 364.02897 262.66563 360.24198 252.21562 355.38999 244.96163 350.47398 241.41461 345.839 238.13301 341.55119 237.92201 340.82389 238.033 334.18199 238.20021 324.17399 241.7082 318.766 248.033 318.766 251.94841 318.766 254.45851 315.9369 257.3136 308.306 259.1438 303.4143 259.1876 302.5541 257.88929 296.989 255.56159 287.01103 249.17638 275.77403 242.11128 269.224 238.70279 266.0635 234.11388 261.7999 231.91428 259.7492 229.71428 257.69853 226.33928 255.2229 224.41428 254.2478 222.48928 253.2727 218.43927 250.6022 215.41428 248.3134 212.38928 246.0246 204.06427 240.6416 196.91428 236.3514 167.59728 218.7594 147.30428 203.30539 136.91428 190.6564 103.041278 149.4184 90.64427 124.0094 86.88528 88.1164 86.47498 84.1986 86.78188 79.1187 87.73109 74.1164 88.55047 69.7983 89.78019 63.0364 90.46389 59.0904 91.14753 55.144 93.18019 48.8444 94.98089 45.0904 96.781589 41.3368 97.87979 37.8772 97.42119 37.4023 96.10189 36.036005 88.00949 40.6081 82.99319 45.5541 80.47689 48.0349 76.96989 53.0349 75.19978 56.6651 72.31938 62.5727 71.99358 64.1317 72.09618 71.5151 72.15926 76.0526 71.818248 79.7651 71.3384 79.7651 70.2441 79.7651 67.414608 74.3926 67.414608 72.3148 67.414608 69.332599 65.4829 70.798999 64.516208 74.5151 63.397207 78.816799 62.024305 91.7081 62.172708 96.520099 62.327138 101.52609 66.053409 108.3481 71.664608 113.89909 76.8879 119.065799 76.6173 122.041599 71.29946 117.91429 69.98776 116.89629 67.83376 115.49389 66.512668 114.79779L64.11076 113.53219 64.77726 118.39509C65.14385 121.06969 66.55566 126.85959 67.91456 131.2611 70.631259 140.0611 74.92936 145.6791 81.67256 149.2421 83.73056 150.3297 85.41436 151.5757 85.41436 152.0112 85.41436 153.2204 80.24446 151.7037 77.259967 149.6189 73.92736 147.291 73.41437 147.2991 73.41437 149.67926 73.41437 152.96706 85.64837 171.76526 87.78737 171.76526 89.67687 171.76526 96.83367 175.67887 96.165668 176.34687 95.97127 176.54128 94.147968 176.18955 92.11397 175.56528 87.796268 174.24018 86.57447 174.94098 88.52417 177.62448 89.28856 178.67658 92.35907 182.96369 95.34757 187.15139 98.336078 191.33908 101.13287 194.76538 101.562877 194.76538 101.992809 194.76538 104.473278 196.11539 107.07507 197.76538 109.67687 199.41538 112.78738 200.76538 113.98737 200.76538 116.32067 200.76538 119.14427 203.36849 118.02497 204.48778 117.44326 205.06949 113.725177 204.25388 107.16397 202.10527 104.00277 201.07007 105.33997 203.15627 113.01997 211.24137 119.208377 217.75617 121.425678 219.42797 125.12297 220.36687 132.88277 222.33718 134.85947 220.61 132.31757 214.08057 130.93907 210.53946 130.95767 197.82157 132.34342 196.43556 134.14812 194.63086 134.74462 196.54145 135.02272 205.01816 135.26076 212.27246 135.71657 214.04816 138.80823 219.76515 144.95394 231.13016 156.24323 242.56116 171.91323 253.28716 174.66323 255.16945 178.71323 257.97767 180.91323 259.52757 187.55323 264.20558 204.58223 272.91355 206.01523 272.36357 210.39102 270.68437 220.41323 277.98316 220.41323 282.84956 220.41323 286.47254 218.56473 286.61946 215.39743 283.24797 214.09703 281.86378 211.36124 280.23027 209.31803 279.61817 205.92713 278.60227 205.23183 278.75636 201.34743 281.38496 189.88143 289.14414 194.21044 305.12696 208.43543 307.55595 210.81172 307.9616 212.92862 308.81144 213.13962 309.44444 213.74399 311.25755 210.23963 311.85905 204.89232 310.86003 200.82712 310.10057 199.35062 310.26646 196.29332 311.82615 191.71662 314.16105 188.73432 317.85874 187.38433 322.87214 186.52223 326.07374 186.67238 327.35273 188.28041 330.50474 190.43001 334.71846 195.08461 339.77143 196.7996 339.75315 197.4121 339.7466 200.23671 339.12263 203.0766 338.36656 206.7933 337.37696 208.5444 337.29624 209.3266 338.0784 211.247 339.9988 210.5106 341.5841 205.9132 345.427 203.43819 347.4958 201.4132 349.6203 201.4132 350.148 201.4132 350.67576 200.6939 351.9023 199.81479 352.8738 197.2172 355.7441 198.81983 362.0368 203.107 365.8008 207.1704 369.3685 210.972 371.04423 213.295 370.2918 214.18486 370.00364 215.9999 368.16813 217.3284 366.213 220.4453 361.62583 222.8012 360.3229 224.4301 362.2856 225.41283 363.46974 225.33202 364.21253 224.02446 366.01463 214.89096 378.60163 213.90247 385.65364 220.68976 389.7926 225.72226 392.861 228.57036 392.3283 234.20175 387.2653 236.95456 384.79029 239.42646 382.7653 239.69486 382.7653 239.96329 382.7653 240.93556 383.91389 241.85546 385.31779 243.47716 387.79289 243.43666 387.97419 240.51976 391.2964 237.13927 395.14659 235.86576 400.0351 236.86116 405.3404 237.4182 408.30979 238.24236 409.2385 241.72246 410.81849 248.59937 413.94059 251.46366 413.15888 255.06446 407.1772 256.11845 405.426 256.27336 405.40818 256.90266 406.966 257.92985 409.5086 250.45595 427.765 248.38776 427.765 246.96006 427.765 247.20996 424.6787 248.90015 421.4381 249.81092 419.69203 249.94635 418.754 249.25452 418.98463 248.63852 419.18998 246.50972 422.48234 244.52391 426.30094 240.5816 433.88194 239.4302 435.18196 237.96031 433.71195 237.33391 433.0855 237.60009 431.09736 238.71208 428.09706 239.65895 425.54225 240.25548 423.27375 240.03759 423.05595 238.76288 421.78126 235.16548 430.99354 232.60709 442.08393L229.64989 454.90293 232.2714 457.3337C235.35559 460.1936 235.61829 460.22703 239.44609 458.2476L239.4478 458.2489ZM234.9151 452.1704C240.455 447.34733 242.4151 446.3044 242.4151 448.17973 242.4151 449.99873 236.826 454.27873 233.4151 455.07164 231.2313 455.57929 231.421 455.21238 234.9151 452.1704ZM244.8613 403.6784C243.604 401.6441 246.09619 400.4287 248.3245 401.9895 249.4673 402.78999 250.1053 403.7421 249.7421 404.1052 248.70079 405.14649 245.60109 404.87538 244.8613 403.67839V403.6784ZM222.4153 385.3884C222.4153 383.4207 224.7583 381.7418 226.2327 382.6531 226.92038 383.0781 227.19464 384.1774 226.84217 385.09593 226.0723 387.1022 222.41527 387.3438 222.41527 385.38844L222.4153 385.3884ZM203.3833 360.1824C202.2196 357.1217 202.84067 355.7663 205.4068 355.7663 207.7292 355.7663 209.0022 359.354 207.3753 361.3143 205.6228 363.426 204.49481 363.1061 203.38321 360.1824H203.3833ZM192.1653 328.68443C188.6845 326.6607 190.7298 321.76634 195.0563 321.76634 198.0993 321.76634 198.78171 323.23854 197.2218 326.43843 195.6916 329.5776 194.5634 330.0787 192.1653 328.68443ZM200.0004 294.8604C198.8544 293.59413 198.5276 292.1672 198.97519 290.384 199.69956 287.4979 201.12389 287.1016 203.78319 289.0461 205.19078 290.0754 205.33818 290.8391 204.536 292.949 203.16809 296.5467 201.97969 297.04753 200.0004 294.8604ZM144.6274 223.3804C142.40399 220.9683 139.9318 217.7058 139.1337 216.1304 137.3649 212.6391 136.0237 205.7554 137.1199 205.7944 137.55733 205.81014 139.9402 209.2315 142.4152 213.3974 144.89022 217.5633 148.15271 221.8561 149.6652 222.9369 151.1777 224.01772 152.4152 225.5464 152.4152 226.33391 152.4152 229.14112 148.60591 227.69641 144.62741 223.3802L144.6274 223.3804ZM221.3634 453.7904C223.7719 452.5014 224.3551 450.8245 225.8941 440.7624 226.83612 434.6035 228.3952 429.7834 231.55481 423.2624 233.95311 418.31239 236.0803 413.8802 236.28182 413.413 237.48682 410.6202 230.92981 416.8457 226.93392 422.2884 224.31981 425.8491 221.80522 428.7624 221.34592 428.7624 219.45212 428.7624 223.57991 419.1958 227.45851 414.59638 229.7541 411.87388 231.47101 409.4864 231.2738 409.2906 230.64722 408.66883 227.0302 412.1121 223.4246 416.7627 218.7487 422.79389 215.4152 426.4148 215.4152 425.4626 215.4152 424.0203 219.6188 416.31 223.7021 410.26258 227.2892 404.95008 226.2397 404.1219 222.4349 409.26258 221.62073 410.36259 219.5166 412.85517 217.75911 414.80158 216.0016 416.74809 212.2864 423.57099 209.50312 429.96357 204.81452 440.73258 204.50621 441.92756 205.30841 446.22056 205.78458 448.76936 206.34091 450.98326 206.54462 451.14015 211.31952 454.81855 217.40763 455.90724 221.36362 453.79014L221.3634 453.7904ZM210.0704 448.9339C207.8203 446.4475 207.8781 444.4149 210.1654 445.5959 211.1279 446.09284 213.58242 446.8002 215.6199 447.16789 218.3117 447.65354 219.1709 448.23628 218.76291 449.29948 217.95587 451.40257 212.0809 451.15559 210.0704 448.93394V448.9339ZM211.4238 441.789C210.2491 441.04634 210.1917 440.5865 211.1536 439.6245 212.11551 438.6626 212.91049 438.68965 214.8952 439.75184 216.2813 440.49366 217.4154 441.47465 217.4154 441.93165 217.4154 443.05714 213.2736 442.95854 211.4238 441.78898V441.789ZM188.0158 449.8454C189.6104 449.34086 192.04 448.6835 193.415 448.3846 195.04419 448.03044 196.3796 446.6954 197.2488 444.5519 197.9824 442.74293 198.97119 440.3627 199.446 439.2627 199.92086 438.1627 201.6786 433.8877 203.3521 429.7627 206.4132 422.2174 211.18489 414.5977 219.30609 404.28669 221.7213 401.22038 223.39839 398.4127 223.0331 398.04728 222.66774 397.68193 220.2417 399.43669 217.64189 401.94679 211.73839 407.64649 203.41489 412.63478 203.41489 410.47239 203.41489 409.6584 204.42739 408.30708 205.66489 407.46949 206.90239 406.6319 209.93988 404.0464 212.41489 401.72398 216.77858 397.62928 215.48009 397.98997 210.41489 402.27958 207.50778 404.74159 199.64189 408.32289 198.8599 407.54069 198.56583 407.2466 201.1579 404.7505 204.62009 401.99369 216.72109 392.35789 217.63109 388.9337 205.71788 397.85929 195.87299 405.23539 183.08289 417.1153 181.43288 420.4173 180.65058 421.9823 179.05428 424.3879 177.88568 425.7629 176.71698 427.1379 175.16608 430.1601 174.43909 432.4789 172.6464 438.1972 174.91477 444.37593 180.18299 448.1249 184.40329 451.12773 184.14479 451.07093 188.01578 449.8461L188.0158 449.8454ZM183.165 444.6826C181.3642 443.6337 178.415 438.71559 178.415 436.76148 178.415 436.1562 180.0004 436.8702 181.93819 438.34819 184.39679 440.2234 186.66309 441.03547 189.43819 441.03547 193.49019 441.03547 194.4822 442.29557 192.21498 444.56278 190.76099 446.01679 185.57349 446.08549 183.16498 444.68269L183.165 444.6826ZM183.27579 436.796C181.34839 435.1904 181.22769 434.82319 182.61795 434.796 184.85135 434.75236 189.41506 436.85209 189.41506 437.92329 189.41506 439.4719 185.66036 438.7825 183.27585 436.796H183.27579ZM175.07698 419.513C179.48618 414.9755 183.92108 409.9823 184.93218 408.417 185.94338 406.85169 189.72808 403.5888 193.34278 401.1661 202.12277 395.2813 210.84477 387.2681 209.98477 385.8761 209.04059 384.3484 206.73928 384.4758 206.11977 386.09016 205.49681 387.71357 193.07978 393.76316 190.36977 393.76316 187.47966 393.76316 187.98906 392.45207 191.66468 390.43028 194.54347 388.84669 203.42568 381.72398 200.91468 383.01268 200.36469 383.29493 197.66468 384.52238 194.91468 385.74049 192.16468 386.95848 188.68117 388.55039 187.17357 389.27809 185.49037 390.09049 184.20287 390.22953 183.83747 389.63835 182.94463 388.19374 185.47707 385.63484 189.41466 384.00285 193.98886 382.10704 202.41466 376.65745 202.41466 375.59486 202.41466 373.99125 199.65805 374.7939 193.31456 378.24467 182.24756 384.26487 168.20856 390.75868 166.22756 390.77265 163.86685 390.7902 154.96356 395.54347 152.82056 397.93037 149.61615 401.49916 148.56616 403.98066 147.55146 410.38337 146.13065 419.34797 149.29265 425.48637 155.99666 426.77836 165.82936 428.67286 166.38066 428.46305 175.07666 419.51335L175.07698 419.513ZM154.59098 421.013C151.94858 418.7762 151.23278 417.3086 150.75548 413.1482 150.37651 409.8451 150.5665 407.7875 151.2919 407.3392 152.05864 406.86534 152.4152 408.05693 152.4152 411.0932 152.4152 413.9615 153.08493 416.3685 154.30081 417.87 155.9506 419.9075 156.95832 420.1712 162.36072 419.9793 169.13492 419.73875 169.73052 421.02583 163.62912 422.7204 158.47852 424.1508 158.24602 424.1069 154.59102 421.013H154.59098ZM158.61518 415.563C156.94658 413.89439 157.11487 411.763 158.91518 411.763 159.8485 411.763 160.41518 412.70744 160.41518 414.263 160.41518 417.1136 160.27039 417.2182 158.61518 415.563ZM246.41518 418.20399C246.41518 417.96144 245.9652 417.763 245.41518 417.763 244.86519 417.763 244.41518 418.23957 244.41518 418.822 244.41518 419.40446 244.86519 419.60289 245.41518 419.26298 245.9652 418.92304 246.41518 418.44648 246.41518 418.20399ZM141.03519 398.53398C142.62189 397.30818 144.51628 395.73167 145.24498 395.03047 149.71979 390.72486 156.30799 387.37217 167.91999 383.49147 171.21999 382.38865 176.25458 380.42347 179.10799 379.12446 181.9614 377.82545 184.57059 376.76255 184.90599 376.76255 185.24147 376.76255 188.02759 375.15586 191.09749 373.19206 197.3429 369.19685 197.36339 366.63465 191.12905 369.23954 187.29204 370.84275 177.42005 371.34614 177.42005 369.93855 177.42005 369.48536 180.79505 368.05616 184.92005 366.76246 189.04505 365.46876 192.42005 363.98707 192.42005 363.46977 192.42005 362.94657 191.4216 362.85035 190.17005 363.25294 186.39595 364.46693 167.42005 365.09565 167.42005 364.0067 167.42005 362.9164 172.99575 361.7904 178.47905 361.7734 180.43645 361.76737 182.91146 361.1017 183.97905 360.29423 185.04665 359.4867 186.65256 358.8117 187.54775 358.79423 189.34825 358.75904 192.36975 355.76243 190.60475 355.76243 190.02153 355.76243 186.70395 356.4167 183.23235 357.2163 179.76074 358.016 173.32035 358.9171 168.92035 359.21873 152.75534 360.3269 149.68535 361.04154 139.49636 366.06694 134.24126 368.65895 129.51366 374.27513 127.02835 380.87895 124.86325 386.63096 124.70205 387.89533 125.74605 390.93196 128.08306 397.72975 130.14244 399.42897 137.53604 400.65916 137.87438 400.71546 139.44934 399.75865 141.03604 398.53285L141.03519 398.53398ZM135.42009 394.05207C132.50849 392.99629 129.42009 389.38526 129.42009 387.03688V384.65968L131.67009 386.99076C132.9076 388.27287 135.19289 389.87757 136.7486 390.55665 140.65979 392.26414 139.4279 395.50544 135.42009 394.05216V394.05207ZM135.3718 385.92466C132.2621 383.40657 133.648 381.21067 136.97229 383.38887 139.33939 384.93986 140.34529 387.76277 138.53089 387.76277 138.04183 387.76277 136.62018 386.93565 135.37178 385.92466H135.3718ZM122.36279 372.59367C123.88729 370.95738 124.1124 370.09748 123.27929 369.09367 122.67185 368.36174 121.53699 367.76286 120.75749 367.76286 119.97792 367.76286 117.445499 366.75807 115.12989 365.52995 111.00249 363.34095 110.97409 363.29045 113.68349 362.96214 116.233188 362.65324 116.000888 362.3909 110.68349 359.57514 104.17599 356.12913 103.90739 355.94184 104.549488 355.29975 104.804218 355.045 107.46668 355.4897 110.46619 356.2879 121.12619 359.12483 122.425189 357.8532 112.419689 354.37593 98.40968 349.50733 90.13268 345.44053 77.919689 337.4259 71.808788 333.4158 65.670688 327.17793 66.76169 326.0869 67.09337 325.75523 68.93429 326.681 70.852588 328.1441 76.33878 332.3287 100.98058 344.2701 111.15259 347.6731 120.84639 350.9165 122.419589 351.2423 122.419589 350.0064 122.419589 349.1069 113.22789 344.76863 111.27759 344.7477 109.25709 344.72605 101.13459 341.7705 99.60359 340.5 98.87111 339.8921 94.36759 337.517 89.59559 335.222 70.95959 326.25898 55.097589 313.66899 42.612588 297.93 40.793989 295.63749 38.881486 293.76179 38.362588 293.76179 37.039987 293.76179 37.18419 303.39179 38.5711 307.69078 40.8284 314.68766 44.6292 322.30479 47.2538 325.09178 48.7197 326.64839 52.7315 329.93357 56.169 332.39228 59.6065 334.85099 62.419 337.25239 62.419 337.72877 62.419 339.51426 59.7846 339.39396 55.6909 337.42155 53.365499 336.30116 51.1261 335.72105 50.7146 336.13255 49.92362 336.92353 59.4586 346.48454 65.4876 350.94554 69.713909 354.07295 76.0136 355.94624 82.9186 356.1288 86.6376 356.22718 87.9186 356.64533 87.9186 357.76103 87.9186 358.586 86.8802 359.4082 85.611 359.5881 82.6563 360.00694 83.2321 361.6912 87.264 364.4237 90.2039 366.41603 94.4448 367.8905 104.919 370.56193 107.118999 371.12306 110.719 372.27763 112.919 373.12773 118.3491 375.22584 119.9951 375.13243 122.362 372.5918L122.36279 372.59367ZM128.4198 364.20387C128.4198 363.9613 127.71823 363.76289 126.8608 363.76289 126.003337 363.76289 125.584407 364.2202 125.92989 364.77919 126.50072 365.70277 128.4198 365.25935 128.4198 364.20387ZM120.6073 363.07975C119.88541 362.7909 119.0229 362.82643 118.6906 363.1587 118.35831 363.491 118.94893 363.72734 120.0031 363.68394 121.1681 363.63594 121.405 363.399 120.60727 363.07975H120.6073ZM187.2873 351.42774C191.91489 351.06068 194.342 349.81095 194.40489 347.76304 194.41332 347.488 188.6827 347.26304 181.66989 347.26304 170.65389 347.26304 167.9959 346.9298 162.12589 344.81263 158.38928 343.46495 154.84668 341.77745 154.25348 341.06263 152.75669 339.25904 154.72747 339.3536 158.41898 341.2626 161.54547 342.8794 185.72397 343.7947 187.16298 342.3507 189.06218 340.4446 183.29628 338.0273 175.23598 337.3503 166.12998 336.5856 151.22298 332.6698 150.62798 330.8865 150.15663 329.4725 150.59769 329.4895 157.92018 331.16764 161.22019 331.92393 168.08219 332.85105 173.17018 333.22795 181.21169 333.82365 182.42018 333.7074 182.42018 332.3381 182.42018 331.4718 182.21065 330.763 181.95456 330.763 181.69847 330.763 176.56206 330.0758 170.54056 329.2359 159.20656 327.6551 149.89656 325.1704 135.59056 319.9085 127.109668 316.789 124.97556 316.67573 117.29056 318.93614 114.334857 319.80549 113.425258 320.7177 112.391757 323.84934 111.304058 327.14524 111.36755 328.33656 112.83631 332.18244 116.23271 341.07563 128.31832 348.02745 146.42032 351.50144 150.78202 352.33833 176.39232 352.2924 187.28733 351.42814L187.2873 351.42774ZM133.95929 343.90815C126.764789 342.51136 125.53709 341.91804 121.20929 337.74665 117.69029 334.35487 116.42039 332.37486 116.42039 330.28025V327.42976L120.06579 331.07514C122.070789 333.08015 124.54579 334.98545 125.56579 335.30915 126.585788 335.6329 127.42039 336.27769 127.42039 336.74205 127.42039 337.20637 130.68289 338.83235 134.67038 340.35536 146.59238 344.90867 146.31238 346.30635 133.95929 343.90815ZM132.4204 335.63575C132.4204 335.11869 130.7386 333.70335 128.68309 332.49064 123.67419 329.53535 126.77999 328.88563 132.3449 331.72465 136.8487 334.02226 137.4433 335.26234 134.42029 336.05284 133.32028 336.34049 132.42029 336.1528 132.42029 335.63575H132.4204ZM105.2924 335.10954C104.53756 334.20005 103.695 330.98844 103.42 327.97264 102.97916 323.1382 102.56497 322.29823 99.92 320.87464 87.07 313.95796 74.174999 303.76365 78.277 303.76365 78.74854 303.76365 83.2396 306.46366 88.2571 309.76365 93.274608 313.06364 97.9637 315.76365 98.6771 315.76365 99.39069 315.76365 100.9755 316.4647 102.1988 317.32154 104.7879 319.13505 107.1464 318.34434 105.405399 316.24665 104.794239 315.51026 101.95989 313.68836 99.106899 312.19795 85.26289 304.96595 56.419897 281.02195 56.419897 276.76094 56.419897 276.21253 55.836217 275.76383 55.122896 275.76383 52.403394 275.76383 37.816896 257.54884 39.000894 255.63182 40.007894 254.00252 41.079996 254.76274 44.475095 259.51344 49.122194 266.01603 70.91609 287.64143 76.97809 291.76545 79.69609 293.61436 83.76629 296.62034 86.02289 298.44544 88.27949 300.27055 90.44849 301.76383 90.84269 301.76383 91.236949 301.76383 93.44059 303.0338 95.73969 304.58595 100.36029 307.70533 112.90769 314.76396 113.832698 314.76396 114.15584 314.76396 114.42021 314.16047 114.42021 313.42286 114.42021 312.68528 112.05771 310.79988 109.17021 309.23295 102.73301 305.73994 96.58421 301.83076 93.92021 299.53755 92.82021 298.59065 89.58061 296.11674 86.721218 294.03996 72.91022 284.00895 60.041215 271.61396 46.461217 255.26395 41.094419 248.80225 32.202219 233.75395 27.469216 223.12195 25.419415 218.51815 23.511816 214.52095 23.230216 214.23935 22.948586 213.95772 21.491116 215.49796 19.991316 217.66216 17.524817 221.22136 17.254317 222.48805 17.158217 230.93016 17.0782 237.96126 17.465996 241.00316 18.730418 243.26316 19.653517 244.91315 20.411519 246.79116 20.414917 247.43656 20.418305 248.08191 21.956717 250.62175 23.833718 253.08075 25.710618 255.53964 27.883318 258.76725 28.661818 260.25306 29.440327 261.73887 32.292119 264.15077 34.999219 265.61286 37.70622 267.07487 39.92112 268.71318 39.92112 269.25346 39.92112 271.49366 36.406419 270.63505 32.09002 267.34025L27.48322 263.82374 28.102919 267.04344C29.132119 272.39054 33.176519 279.15943 38.75892 284.87644 44.267518 290.51866 47.70182 292.36454 58.19892 295.32545 65.742328 297.45326 65.906528 299.40046 58.50318 298.93495L53.28928 298.60704 54.78308 301.49574C56.75098 305.30113 62.39248 310.76185 64.361087 310.76655 65.21916 310.7686 67.394588 311.6686 69.19538 312.76655 70.99618 313.86448 73.69618 314.76896 75.19538 314.77644 78.56958 314.79335 82.42288 315.78215 82.416088 316.62944 82.41329 316.97779 80.725788 317.97123 78.666088 318.83705L74.92118 320.41123 79.86698 323.58705C84.08558 326.29594 85.73958 326.76286 91.11698 326.76286 97.80588 326.76286 98.823688 327.58128 95.17118 330.02317 92.94158 331.51377 92.96658 331.55027 97.92118 334.03947 100.67118 335.42106 103.76378 336.59907 104.79358 336.65718 106.42398 336.74919 106.48858 336.54905 105.29358 335.10926L105.2924 335.10954ZM181.4204 322.47554C181.4204 320.45753 180.2136 319.79664 171.1704 316.86235 159.4914 313.07273 151.4204 309.07716 151.4204 307.08494 151.4204 305.65693 155.0799 306.09538 158.7115 307.9584 162.035 309.6634 178.3455 314.7629 180.4745 314.7629 184.3849 314.7629 181.9125 312.61183 174.8389 309.85963 170.9754 308.3564 165.13809 305.63993 161.8669 303.82304 158.596 302.00605 154.6913 299.87074 153.1897 299.07783 150.0046 297.39604 149.0604 296.1534 149.9158 294.7694 150.27591 294.18675 153.2982 295.2797 157.22481 297.4126 160.9071 299.4128 168.4198 302.7233 173.9198 304.7694 179.4198 306.81553 184.7078 308.82423 185.6698 309.23323 186.9007 309.75624 187.4198 309.5201 187.4198 308.43724 187.4198 307.59043 186.4073 306.59223 185.1698 306.21903 176.5198 303.61015 150.83679 290.59703 140.4118 283.54103 135.4449 280.17933 129.2998 275.20393 126.756809 272.48503 121.46551 266.82814 118.175807 265.4576 110.41981 265.67924 106.20901 265.7995 104.509609 266.3225 103.16981 267.91053 100.945308 270.5472 100.879909 277.42774 103.03132 282.47953 105.97702 289.39613 108.868518 294.76353 109.64892 294.76353 110.07292 294.76353 110.419818 295.6635 110.419818 296.76353 110.419818 297.86354 110.91325 298.76353 111.51631 298.76353 112.119419 298.76353 114.657817 300.5635 117.15711 302.76353 119.65641 304.96354 122.109218 306.76353 122.60771 306.76353 123.10618 306.76353 126.98031 308.67234 131.21692 311.0053 141.80892 316.8378 148.85292 319.6228 155.91992 320.7712 159.21993 321.30747 164.84493 322.3714 168.41992 323.13563 171.99492 323.89979 176.38242 324.5786 178.16992 324.64424 180.92412 324.74525 181.41992 324.41447 181.41992 322.476L181.4204 322.47554ZM122.2784 301.46754C118.88609 299.92024 113.43079 295.01985 111.100399 291.4265 106.48869 284.3153 105.77889 275.7025 109.74149 274.9385 111.11189 274.67448 111.41959 275.44169 111.41959 279.1234 111.41959 281.6029 111.88763 284.8984 112.459697 286.44673 113.428539 289.06904 125.00269 300.7177 126.66969 300.7477 127.082187 300.75526 127.41969 301.2114 127.41969 301.7614 127.41969 303.0686 125.556499 302.9617 122.27809 301.4663L122.2784 301.46754ZM121.2035 291.01255C120.36393 290.05003 119.0955 288.13755 118.384799 286.76255 117.156398 284.38597 117.187099 284.33424 119.00631 285.71507 122.83251 288.61918 125.42001 291.12928 125.42001 291.93678 125.42001 293.39659 122.777919 292.81739 121.203517 291.01249L121.2035 291.01255ZM188.17749 297.66734C187.85234 294.82005 187.02709 294.19773 177.87149 289.89625 163.91249 283.33757 157.1245 279.49525 156.5985 277.85325 156.3096 276.95179 156.64647 276.65525 157.53327 277.03044 158.29582 277.35304 165.63576 280.57475 173.84427 284.18974 182.05278 287.80473 188.91527 290.76255 189.09427 290.76255 189.27329 290.76255 189.41977 289.86253 189.41977 288.76255 189.41977 287.66258 188.85727 286.75764 188.16977 286.75175 184.54936 286.72044 158.41977 269.13676 158.41977 266.73176 158.41977 265.7455 165.51137 269.22697 173.91977 274.34126 182.93447 279.82426 190.20877 283.30705 190.99777 282.51805 192.10578 281.41004 190.72223 280.33064 183.16477 276.40724 171.44577 270.32344 161.96976 263.48823 161.58577 260.84123 161.17958 258.0436 160.84757 257.90403 171.91977 265.18614 182.16577 271.92503 190.90277 276.47914 194.47577 276.94413 199.14847 277.5526 197.35277 275.23884 190.15798 271.3806 171.77898 261.52503 148.26898 243.56662 142.78199 235.19362 138.78119 229.08753 122.53098 224.50762 118.64798 228.39072 114.77398 232.26482 115.89118 244.83972 121.00618 254.93372 124.23968 261.31483 132.08718 271.09974 135.41918 272.9067 137.61197 274.09553 143.92188 278.5429 148.43018 282.0773 154.34137 286.7114 175.14318 297.4523 181.91918 299.3693 188.27718 301.1679 188.56758 301.0889 188.17678 297.6669L188.17749 297.66734ZM133.2965 263.31935C125.62129 257.68666 123.91989 254.50084 123.91989 245.76233 123.91989 239.76233 124.21988 238.26233 125.41989 238.26233 126.51639 238.26233 127.08979 239.87644 127.55149 244.26233 128.30428 251.41274 130.11569 255.17733 135.4468 260.67033 139.17809 264.5151 140.3888 266.794 138.66989 266.7372 138.25739 266.72358 135.83939 265.18553 133.2965 263.31944V263.31935ZM133.9001 252.57134C130.7405 248.88634 129.3426 245.92774 130.4404 245.24924 131.9091 244.34152 133.1881 245.4711 134.9891 249.26644 137.0756 253.66353 136.45401 255.54993 133.9001 252.57134ZM103.420108 297.96333C103.420108 297.5244 101.6638 293.5822 99.5173 289.2029 97.370708 284.8236 95.288509 279.06694 94.89 276.4089 94.31984 272.6068 93.4033 270.905 90.5871 268.4193 78.3381 257.6073 71.2361 249.61132 72.6391 248.20832 72.92299 247.92441 77.6929 252.20752 83.2391 257.7264 88.784999 263.2453 93.5691 267.7604 93.87109 267.7604 94.17294 267.7604 94.41992 267.04338 94.41992 266.167 94.41992 265.29066 89.981227 260.35319 84.55612 255.19499 67.23812 238.728 51.75912 217.469 45.443124 201.47499 42.111425 193.03809 43.714025 193.333 47.790826 201.90706 49.714025 205.95166 53.787828 212.63607 56.843729 216.76107 59.899728 220.88607 63.851228 226.28606 65.62503 228.76107 72.71013 238.64727 96.32703 261.18708 97.92503 259.58906 98.18304 259.33106 94.228839 254.87676 89.13793 249.69045 77.52493 237.86045 66.41993 224.98645 66.41993 223.35445 66.41993 223.06652 63.87473 218.65265 60.76383 213.54586 50.80943 197.20485 43.56083 180.77486 38.15883 162.30886 37.36211 159.58545 36.28503 157.21546 35.76543 157.04225 33.95153 156.43762 30.28973 162.89115 28.38573 170.04825 25.83513 179.63574 25.847432 187.70026 28.419949 192.49925 29.519949 194.55165 30.419949 196.73096 30.419949 197.34226 30.419949 197.95354 32.08625 200.16945 34.12285 202.26645L37.82575 206.07915 34.87285 205.34195C33.24875 204.93647 31.12975 203.89255 30.163849 203.02205 29.197979 202.15161 28.12275 201.72444 27.774449 202.07273 26.026848 203.82022 33.55515 222.95273 38.77945 230.04273 41.04215 233.11302 47.87035 238.13413 51.23545 239.20212 52.337453 239.55187 53.78475 240.49562 54.45175 241.29932 55.46395 242.51902 55.22274 242.76062 52.99235 242.76062 51.52265 242.76062 48.950754 242.05243 47.27695 241.18682 45.60315 240.32128 44.062253 239.78452 43.852754 239.99402 43.19559 240.65116 53.440454 254.12802 56.756753 256.97004 58.49615 258.46015 60.616754 259.69773 61.469255 259.72004 62.321756 259.74238 63.446756 260.14433 63.969255 260.61326 64.49176 261.08216 67.08135 262.04756 69.72395 262.75856 75.44905 264.29887 74.69975 265.82514 68.09275 266.08085L63.50915 266.25825 66.71415 269.59996C70.46145 273.50706 80.27815 278.76066 83.83215 278.76066 85.19035 278.76066 86.57975 279.21064 86.919757 279.76066 87.26284 280.3158 86.51063 280.76747 85.22875 280.77595 79.45805 280.8142 80.34905 282.42634 90.63295 290.55476 100.16475 298.08857 103.41995 299.97434 103.41995 297.96257L103.420108 297.96333ZM88.1451 274.7503C84.0679 271.1614 82.061107 267.76103 84.0201 267.76103 85.346408 267.76103 93.6008 276.71803 93.248508 277.77503 93.03971 278.4014 90.7533 277.0464 88.145008 274.75044L88.1451 274.7503ZM115.420108 256.66133C115.420108 255.50731 110.351207 250.18042 106.9007 247.70822 104.112308 245.71042 98.048908 237.79923 98.760608 237.08722 99.08048 236.76735 101.6584 238.58812 104.4893 241.13332 114.4679 250.10492 113.0295 244.72931 102.5277 233.80261 92.975208 223.86351 82.2657 207.76062 85.2077 207.76062 85.613788 207.76062 88.952 211.69812 92.6259 216.51062 96.2998 221.32312 101.0706 226.97962 103.2279 229.08162 106.8372 232.59803 107.1924 232.73963 107.684398 230.85822 108.05302 229.44861 107.07877 227.48592 104.5469 224.53733 92.3509 210.33333 76.5049 184.84932 70.1779 169.26132 64.8495 156.13433 60.651506 143.48633 59.850904 138.14832 58.93257 132.02442 60.798124 133.02822 62.378004 139.50801 63.5624 144.36562 66.3208 150.24102 66.384708 148.042 66.40419 147.3715 65.295108 143.3766 63.920106 139.16442 62.545106 134.95223 61.420106 130.46762 61.420106 129.19861 61.420106 127.929599 60.933526 125.62451 60.338808 124.07621 59.744096 122.52791 59.054006 119.01111 58.805307 116.26111 58.556608 113.51111 58.099977 109.68611 57.790605 107.76111 57.481184 105.836109 57.174695 100.99861 57.109506 97.01111 57.044305 93.023609 56.738374 89.76111 56.429647 89.76111 55.735345 89.76111 45.384645 103.42411 43.735647 106.517108 41.986848 109.7974 39.420347 120.37611 39.420347 124.30511 39.420347 130.1564 43.097646 137.9201 48.991846 144.51212 54.823945 151.03482 54.314744 153.22592 48.205144 147.89702 46.398546 146.32122 43.86344 144.70182 42.571645 144.29833 40.597944 143.68183 40.311143 143.85987 40.775545 145.41342 42.360345 150.71512 45.42034 163.32242 45.42034 164.54943 45.42034 167.32573 52.927145 178.05643 56.405344 180.25243 64.566448 185.40433 63.52014 187.78343 55.069444 183.29013 51.231843 181.24964 50.420545 181.09194 50.420545 182.3862 50.420545 184.7069 59.399045 200.7622 60.696546 200.7622 61.309415 200.7622 62.960447 201.8457 64.36555 203.17002 65.770648 204.49433 69.62025 207.1932 72.92025 209.16742 78.46905 212.48702 78.69465 212.75672 75.92025 212.75342 74.27025 212.75144 71.63135 212.0776 70.055957 211.25601 65.26816 208.75902 65.21326 209.47852 69.67027 216.31392 74.349979 223.49073 78.343379 227.63692 82.38427 229.51392 85.75247 231.07862 96.42027 237.75911 96.42027 238.30362 96.42027 238.44576 94.845279 238.56204 92.92027 238.56204 90.99527 238.56204 89.42027 238.20519 89.42027 237.76903 89.42027 237.33287 88.74527 236.71703 87.92027 236.40042 87.09526 236.08385 86.42027 236.31865 86.42027 236.92221 86.42027 238.42401 103.43327 255.7702 105.92027 256.8042 108.88107 258.0348 115.42027 257.9371 115.42027 256.66224L115.420108 256.66133ZM111.1743 222.99932C111.38284 222.37368 109.7836 219.92682 107.6205 217.56182 102.783199 212.27312 87.4945 191.07482 86.347499 188.06581 85.88702 186.85782 84.13989 183.97782 82.465099 181.66582 80.7903 179.35372 79.4199 177.08742 79.4199 176.62943 79.4199 176.17144 77.433399 171.62642 75.0055 166.52942 72.57761 161.43242 69.871707 155.50542 68.9924 153.35842 66.5913 147.49562 65.9166 149.8108 68.23926 155.94292 74.60386 172.74692 85.05826 191.11592 99.645259 211.12592 101.99646 214.35121 104.60296 218.17621 105.43765 219.62592 108.19405 224.41352 108.59355 224.87071 109.69925 224.50212 110.30197 224.30121 110.96575 223.62496 111.17425 222.99933L111.1743 222.99932ZM398.0343 460.6693C394.6661 458.0199 392.2071 453.2905 391.8504 448.7753 391.6975 446.8403 390.78993 442.1071 389.83363 438.2573 388.53514 433.03 387.37754 430.66929 385.26243 428.9356 381.27464 425.6668 373.74143 425.0687 364.91944 427.3204 360.65736 428.4083 354.00843 429.1357 347.91944 429.1802 339.42393 429.24235 337.51045 428.95274 335.20045 427.2553 333.70524 426.1564 332.46775 424.45713 332.45045 423.479 332.41633 421.5483 341.53605 412.573 346.71144 409.445 350.77275 406.98973 351.12623 406.40513 352.48744 399.89213 353.4302 395.38114 354.49565 393.65394 359.17805 389.0461L364.74726 383.56523 364.99946 376.41154C365.28135 368.41673 366.29057 365.09855 369.85737 360.4395 372.11518 357.4902 374.48738 356.0107 384.81837 351.10823 386.96308 350.0905 390.94337 347.23283 393.66346 344.7578 397.91407 340.8902 398.67185 339.62544 399.05537 335.7578 399.6324 329.9399 397.89286 326.7366 392.89176 324.4078 384.30097 320.4074 380.35078 314.0588 379.63575 303.1008 379.1268 295.3085 381.98735 283.1918 384.90815 280.7678 385.73933 280.07798 386.42655 279.0062 386.43534 278.38609 386.46958 275.96809 401.86235 259.25108 405.75535 257.40309 407.55366 256.5497 409.87156 254.91597 410.90635 253.77259 411.94114 252.6292 414.39234 250.72609 416.35356 249.54358 418.31477 248.36107 421.94435 245.77228 424.41935 243.79077 428.52516 240.50368 435.27635 235.74108 439.31636 233.28278 447.64985 228.21088 453.64634 224.63898 457.41935 222.49977 463.62696 218.97988 475.30036 210.52178 478.91935 206.92278 480.56935 205.28157 486.83686 199.58968 492.84736 194.27378 499.32447 188.54547 505.32637 182.22278 507.58335 178.74878 509.67787 175.52548 514.43539 168.84159 518.15536 163.89579 521.8756 158.94998 525.81948 153.42479 526.91946 151.61779 528.0194 149.81058 530.16537 146.29048 531.6881 143.79538 535.6321 137.33318 539.41946 129.99738 539.41946 128.81938 539.41946 128.26615 540.5064 125.43868 541.83486 122.53618 546.2769 112.83098 548.7484 97.141178 548.4946 80.25918 548.3061 67.72918 546.114 57.961179 541.4292 48.778177 540.3238 46.611478 539.4194 44.102777 539.4194 43.203275 539.4194 42.303766 538.57528 40.373376 537.5436 38.913476 536.5119 37.453577 534.63418 33.844976 533.371 30.894375 530.7168 24.694575 531.14578 23.375576 536.76437 20.459374 540.01626 18.771775 540.86349 18.696475 543.6942 19.843483 549.7411 22.293683 562.61526 33.870485 568.62026 42.258485 570.5891 45.008485 573.1494 50.343786 574.3098 54.114484 575.63327 58.415285 577.3186 61.677984 578.8316 62.868085 581.7934 65.19788 586.41696 74.232089 586.4246 77.70409 586.4281 79.31589 587.9956 81.948787 590.6746 84.84279 593.00906 87.364589 595.81906 90.93239 596.919 92.771289 598.019 94.61018 600.15896 98.17199 601.6744 100.68629 604.9463 106.114788 604.63668 105.36249 607.46408 114.758289 609.60098 121.85948 609.64706 122.65709 608.3292 129.75829 606.55838 139.3021 606.66787 146.73029 608.60067 148.16829 609.406 148.76775 612.88638 155.02039 616.33468 162.0633L622.6041 174.86829 622.5014 190.86029 622.3987 206.8523 625.2919 209.55519C631.4335 215.2927 633.49667 223.74819 631.5221 235.08719 630.2381 242.46059 625.6303 253.48119 621.6492 258.7012 620.0082 260.8526 618.94058 263.61833 618.8171 266.03813 618.63137 269.67454 615.64498 277.69514 611.47439 285.75914 610.37 287.89433 609.3948 292.74714 608.97348 298.20414 608.5937 303.12373 607.70919 308.52415 607.0079 310.20414 606.3066 311.88453 605.4223 314.83433 605.04287 316.75935 604.6634 318.68434 603.035 322.05934 601.42428 324.25935 596.25009 331.32585 595.1603 333.74256 596.4479 335.29435 597.3323 336.35997 597.23049 337.43116 596.0129 339.87187 592.3406 347.23307 586.5721 352.97386 577.5719 358.22386 576.6628 358.75419 574.1189 360.37126 571.9189 361.81736 567.3177 364.84178 556.7829 369.75965 554.9059 369.75965 554.20687 369.75965 548.1924 371.55964 541.5409 373.75965 534.889 375.95967 528.4949 377.75965 527.3319 377.75965 525.411 377.75965 525.2599 378.19444 525.681 382.50965 526.29806 388.83226 523.8284 397.83964 521.2965 398.50166 520.2445 398.77674 519.5062 399.71995 519.6527 400.60145 520.2173 403.99674 506.62773 405.80085 500.06773 403.20146 497.2485 402.08436 496.50703 404.40275 498.04704 409.51966 501.58833 421.28666 498.15409 429.94166 488.83613 432.73268 486.13154 433.5428 481.76594 434.06278 479.13493 433.88829 473.43824 433.51036 471.1784 434.95448 472.0476 438.41758 472.86665 441.68067 470.0281 448.80158 466.5989 452.0876 464.7081 453.89909 461.92903 455.10359 457.93803 455.8414 452.6744 456.81443 451.68244 456.7149 448.4313 454.88768 444.62733 452.74967 440.9453 452.94557 440.0285 455.33467 439.7378 456.09214 437.4247 457.68736 434.8883 458.87968 430.8864 460.76078 429.17213 460.96949 421.9253 460.45808 415.3235 459.99217 413.3224 460.1716 412.3739 461.31455 410.455 463.62675 401.2669 463.21507 398.0339 460.6721L398.0343 460.6693ZM410.3763 457.64683 412.83283 455.60264 410.47404 443.93064C408.39933 433.66365 404.07295 421.77165 402.85554 422.98866 402.6191 423.22508 403.1538 425.55537 404.04374 428.16716 405.61195 432.76966 405.06474 435.46977 402.86854 433.96604 402.2994 433.57646 400.54505 430.67604 398.96983 427.52064 397.3947 424.36524 395.2149 420.99024 394.126 420.02064 392.1677 418.27684 392.1639 418.29225 393.77595 421.44435 395.36335 424.54844 395.08216 428.28504 393.3418 427.20945 391.9126 426.32615 387.1556 415.00346 385.74369 409.12446 384.9597 405.86006 387.12129 405.36207 388.6082 408.46446 390.60328 412.62705 394.2772 413.47587 400.0482 411.10746 404.3134 409.35707 404.9506 408.69026 405.697 405.19587 406.757 400.23408 405.11399 394.18986 401.7302 390.60087 400.0171 388.78428 399.4262 387.31208 399.8606 385.94328 401.011 382.31877 403.2548 382.66987 408.4545 387.28788 414.0036 392.21638 416.9218 392.78327 421.8505 389.89079 427.8419 386.3748 427.6788 379.36878 421.38609 369.94477 417.00328 363.38136 416.68608 362.25218 418.97837 361.37248 419.98478 360.98628 421.75538 362.10035 423.97358 364.51548 425.8636 366.57319 427.41197 368.54609 427.41459 368.89979 427.4272 370.58378 431.01759 370.58268 434.76408 368.89753 443.02857 365.1801 445.64408 359.3416 442.31758 352.03553 441.26057 349.71385 439.38847 347.28074 438.15757 346.6285 435.45387 345.1961 432.41368 341.86253 432.43467 340.3536 432.47737 337.295 433.93168 336.9581 440.12419 338.5725L446.32899 340.19013 448.9694 337.72334C450.4216 336.36665 452.7305 333.35124 454.10029 331.02253 456.54829 326.86064 456.56318 326.70555 454.97236 321.91615 452.17787 313.50263 445.83045 309.37715 437.94535 310.85014 432.84815 311.80238 429.41896 311.32267 429.41896 309.65733 429.41896 308.54164 430.44447 308.15843 435.84785 307.25514 438.34944 306.83695 440.95066 305.42445 443.00825 303.36683 449.90974 296.46534 449.26676 286.72483 441.56196 281.4558 436.50526 277.9981 432.11546 278.4682 427.52195 282.95964 422.24745 288.11634 419.77485 284.79185 423.94856 278.1552 425.66105 275.432 431.71626 272.58464 436.30455 272.3449 438.39375 272.23576 442.58015 270.5943 446.22315 268.4559 449.69017 266.4208 452.84016 264.7468 453.22315 264.7359 453.60615 264.72496 456.61955 262.9213 459.91957 260.7277 463.21955 258.53419 467.71955 255.5438 469.91957 254.08249 474.97868 250.72199 487.69856 240.60349 488.60157 239.22049 488.9768 238.64624 491.78736 235.4943 494.84757 232.2163 497.90766 228.93819 502.03367 223.1789 504.01649 219.41829 507.18379 213.41019 507.6273 211.6883 507.66929 205.23628 507.72184 197.17488 508.57975 194.51628 510.50688 196.44399 511.67918 197.61629 511.27738 210.21799 509.83543 217.50598 509.31559 220.13349 509.5128 220.75598 510.86494 220.75598 511.78486 220.75598 512.2692 221.18999 511.94145 221.72043 511.61369 222.25089 512.92257 222.02588 514.85037 221.22043 516.778 220.41498 519.06997 219.75603 519.9434 219.75603 521.42147 219.75603 536.4514 204.81304 537.3034 202.49604 537.52938 201.88159 536.91238 201.70236 535.8034 202.06034 528.8644 204.30014 525.39346 205.06324 524.8084 204.47783 523.67886 203.34824 526.5227 200.75543 528.8914 200.75543 530.11636 200.75543 533.0987 199.41364 535.5189 197.77364 537.9392 196.13364 540.36947 194.77924 540.91946 194.76374 541.4694 194.74832 544.96487 190.38404 548.68698 185.06534 555.65078 175.11464 556.064 172.58934 550.25479 175.48744 548.6268 176.29958 547.07418 176.74344 546.80459 176.47379 546.0321 175.70127 552.943 171.75539 555.06857 171.75539 556.4163 171.75539 558.5579 169.09259 562.31759 162.74208 565.2524 157.78478 568.05099 153.48319 568.53659 153.18308 569.5144 152.57877 569.76968 147.75537 568.82388 147.75537 568.4963 147.75537 567.03378 148.59943 565.57388 149.63108 562.9711 151.47028 556.41946 153.43547 556.41946 152.37708 556.41946 152.08156 558.5501 150.59108 561.15426 149.06497 565.37368 146.59227 570.66189 141.62627 572.62228 138.29598 573.71566 136.43848 578.41958 118.20898 578.41958 115.82997 578.41958 113.50297 578.92117 113.34427 570.03897 118.48197 566.53829 120.506877 566.75607 117.18527 570.3206 114.185878 574.7367 110.46998 579.32156 103.24387 579.979 98.963878 580.74899 93.951679 578.8976 75.51588 577.3316 72.601879L576.0717 70.256877 575.3833 72.81528C573.0336 81.54848 570.0013 81.99398 570.6761 73.506877 571.1946 66.98477 569.1257 58.442876 565.68539 52.90087 560.45327 44.473375 544.4194 33.08587 544.4194 37.79787 544.4194 38.3704 545.76119 41.417074 547.4012 44.56817 549.0735 47.78137 551.07919 54.02157 551.9681 58.77717 552.83987 63.440969 554.1515 70.18217 554.8827 73.75717 557.063 84.41517 554.798 102.79317 549.27499 119.25717 541.88687 141.28118 535.97897 151.49118 513.41897 181.21717 510.94395 184.47856 503.74397 192.35117 497.41896 198.71117 484.88096 211.31917 476.58094 217.39517 447.49797 235.25717 430.57597 245.64917 425.72096 248.84018 423.05796 251.31618 422.43147 251.89882 419.55625 253.65789 416.66877 255.22509 413.78126 256.7924 411.41877 258.57389 411.41877 259.18409 411.41877 259.79429 410.33506 260.9603 409.01057 261.77519 405.20637 264.11567 396.17658 273.03019 393.25056 277.3332 389.89176 282.2735 385.37297 292.9532 384.30665 298.4712 383.30555 303.65159 385.13865 310.3912 388.88496 315.3022 390.97325 318.03999 392.22117 318.75709 394.89787 318.75709 400.79246 318.75709 404.36875 324.39488 404.65757 334.14308 404.82286 339.71867 404.48167 341.05867 401.97596 344.67408 398.32667 349.93998 391.97395 354.56349 382.25096 359.02909 371.61296 363.91529 369.26695 367.46519 369.51795 378.29609 369.70555 386.3866 369.2626 387.35389 363.90815 390.5471 361.54426 391.95689 355.60795 402.3461 354.93165 406.25709 354.08119 411.17488 353.08015 412.45289 349.45515 413.24909 343.26136 414.6095 335.72715 424.51008 339.71974 426.04209 342.32124 427.04039 360.08573 426.0057 362.48374 424.7162 367.34733 422.10108 378.79875 420.23039 383.98674 421.2035 386.5277 421.6802 387.78294 422.5827 388.48954 424.44129 389.02836 425.8585 390.27635 428.1969 391.26283 429.63749 393.34803 432.68278 395.00444 438.19038 395.95994 445.25648 396.72743 450.93177 398.44136 454.25767 402.26976 457.50148 405.52095 460.25627 407.20286 460.28617 410.37586 457.64567L410.3763 457.64683ZM402.6585 451.33753C400.60603 449.4565 399.2644 447.5797 399.67723 447.16694 400.09004 446.75413 401.43843 447.3369 402.67384 448.46205 403.90913 449.58714 405.93235 451.02973 407.16984 451.66786 408.40733 452.3059 409.41984 453.26216 409.41984 453.79277 409.41984 455.78688 406.26255 454.64036 402.65855 451.33757L402.6585 451.33753ZM393.0929 404.09754C392.72975 403.73439 393.36766 402.78236 394.5105 401.98185 396.7389 400.42106 399.231 401.6364 397.9738 403.67076 397.23399 404.86775 394.1342 405.13887 393.0929 404.09757V404.09754ZM415.9939 385.09056C415.073 382.69075 416.96589 381.13624 418.8773 382.72254 419.7257 383.42658 420.41969 384.62254 420.41969 385.38014 420.41969 387.334 416.76298 387.09465 415.99388 385.09046L415.9939 385.09056ZM434.9369 360.77656C433.4696 359.15516 433.3728 358.51945 434.4044 357.27656 435.80229 355.59217 438.9859 355.24656 439.8736 356.68287 440.5154 357.72126 438.4766 362.75788 437.4144 362.75788 437.0379 362.75788 435.9231 361.8663 434.9369 360.77659V360.77656ZM446.6449 328.52857C446.0598 327.82356 445.2712 326.01179 444.8923 324.50236 444.2768 322.04997 444.4735 321.75794 446.7405 321.75794 449.4737 321.75794 452.7298 324.32954 452.16023 326.03843 451.96803 326.615 450.88783 327.69963 449.75984 328.4486 448.09645 329.553 447.5078 329.5681 446.64503 328.5286L446.6449 328.52857ZM439.6441 295.52757C439.0595 294.8231 438.2818 293.05418 437.91603 291.59666 437.3815 289.46705 437.6586 288.81715 439.32664 288.28767 442.01335 287.43495 443.07115 288.15065 443.65745 291.21806 444.25816 294.36027 441.30616 297.53016 439.64414 295.52757H439.6441ZM490.4201 226.31456C490.4201 225.52075 491.31629 224.24356 492.4116 223.47637 494.8877 221.74207 499.5748 215.33507 502.35679 209.88237 504.9113 204.87517 506.8582 204.39658 505.9127 209.00821 504.8982 213.95601 501.6461 219.84722 497.63169 224.00821 493.9621 227.81221 490.42008 228.9452 490.42008 226.31491L490.4201 226.31456ZM433.9171 452.50459C435.423 451.20588 436.9215 448.48908 437.4613 446.07878 438.3042 442.31507 438.0193 441.08158 434.5744 433.57878 432.4722 429.00047 430.47093 424.12959 430.127 422.75477 429.7831 421.37977 427.23323 417.57426 424.46073 414.29808 421.68824 411.02189 419.41975 408.09266 419.41975 407.78858 419.41975 407.48457 418.47724 406.64729 417.32536 405.92778 415.61515 404.85978 415.79457 405.43904 418.30296 409.08497 422.43525 415.09098 427.71336 424.79496 427.15287 425.35496 426.90388 425.60386 425.17466 423.99577 423.31007 421.78147 421.44538 419.56718 418.40507 415.95527 416.55378 413.75508 414.70249 411.55488 412.75218 409.75468 412.21977 409.75468 411.68736 409.75468 412.75205 411.58549 414.58576 413.82307 418.85676 419.03477 421.31095 423.64268 421.37178 426.56407 421.43367 429.53977 419.99519 428.62678 416.90238 423.72737 414.03938 419.19206 407.81248 412.75538 406.28837 412.75538 405.70265 412.75538 406.19746 414.21788 407.38777 416.00538 408.57817 417.79289 410.22547 420.83039 411.04847 422.75538 411.87147 424.68037 413.14128 427.60539 413.87016 429.25538 414.59916 430.90538 415.71907 435.40538 416.35896 439.25538 418.84565 454.21739 418.98347 454.41438 427.11396 454.63938 430.14045 454.72306 432.03446 454.12895 433.91706 452.50538L433.9171 452.50459ZM423.87913 449.68809C423.0122 448.2855 423.06764 448.25199 429.17024 446.4897 433.18605 445.33009 434.42024 445.2641 434.42024 446.20915 434.42024 449.65214 425.6465 452.54774 423.8792 449.68806L423.87913 449.68809ZM425.42024 441.7898C425.42024 440.1704 429.50355 438.4379 430.64054 439.5749 431.19355 440.12794 431.34367 441.06959 430.97416 441.66749 430.14317 443.012 425.42027 443.1161 425.42027 441.78977L425.42024 441.7898ZM462.74024 448.0046C465.30656 446.06663 466.85655 443.77833 467.98954 440.2546 469.53083 435.4612 469.50993 435.0686 467.48313 430.7546 466.3203 428.2796 464.36814 424.69673 463.14485 422.7926 460.90455 419.3054 443.48783 401.7606 442.26286 401.7566 441.90077 401.7555 439.11866 399.72959 436.08027 397.25459 433.04197 394.77958 429.99156 392.75459 429.30158 392.75459 427.55839 392.75459 432.86579 398.19938 439.24888 402.95957 442.17918 405.14479 444.32127 407.18797 444.00907 407.50007 443.31056 408.19859 435.56599 404.92008 433.17106 402.91206 432.20854 402.105 431.42106 401.90327 431.42106 402.46366 431.42106 403.0241 433.22105 404.73005 435.42106 406.25465 437.62107 407.77925 439.42106 409.68324 439.42106 410.48564 439.42106 412.59315 431.09495 407.63523 425.38706 402.12873 417.79386 394.80393 417.09025 396.71965 424.17927 405.4171 433.90168 417.34513 435.22029 419.6741 442.93028 438.5231 446.11576 446.3109 447.13688 447.8826 449.32139 448.3606 450.75129 448.67347 453.04618 449.30458 454.42118 449.763 458.30049 451.0565 458.8542 450.9394 462.74079 448.0045L462.74024 448.0046ZM450.07524 443.9258C447.64604 441.2416 447.95445 440.9212 452.9666 440.9212 456.3937 440.9212 458.40724 440.23915 461.14543 438.1505 463.88163 436.0635 464.6104 435.8164 464.09913 437.14894 463.7257 438.12196 463.42024 439.26554 463.42024 439.69023 463.42024 440.11494 462.31675 441.6531 460.96803 443.10844 457.9985 446.31254 452.6017 446.71754 450.075 443.9257L450.07524 443.9258ZM453.42024 438.1148C453.42024 436.7916 457.01344 434.8182 459.42024 434.8196L461.92024 434.8211 459.55943 436.7878C457.3233 438.6506 453.42024 439.49433 453.42024 438.1148ZM489.65824 426.18583C491.80793 425.30735 494.52876 420.86415 495.10993 417.28294 496.70774 407.43653 491.59733 397.31593 482.96495 393.23295 480.08424 391.87016 477.16114 390.75526 476.46916 390.75526 475.77708 390.75526 472.97105 389.63026 470.23347 388.25526 467.49589 386.88026 464.49317 385.75526 463.56077 385.75526 462.62828 385.75526 460.80726 385.01414 459.51408 384.10835 455.15489 381.05503 443.15507 374.75526 441.69807 374.75526 437.92927 374.75526 443.05897 378.68785 456.30308 385.95225 458.30177 387.04844 459.19679 388.17204 458.83079 389.12565 458.36149 390.34886 457.1388 390.0969 451.69798 387.65574 448.08647 386.03535 444.92738 384.91395 444.67768 385.16365 444.4279 385.41334 446.62019 387.33613 449.54939 389.43635 453.8368 392.51045 454.47828 393.31245 452.83949 393.54945 450.34867 393.9096 438.4405 388.69056 436.5475 386.40895 434.88139 384.40113 432.4199 384.23655 432.4199 386.13294 432.4199 387.65895 442.41349 396.67695 449.4199 401.47294 451.8949 403.16716 454.656 405.38633 455.55549 406.40434 456.45515 407.42234 461.4051 412.6866 466.55549 418.10234L475.9199 427.94975 482.15739 427.32575C485.5879 426.98255 488.9629 426.46958 489.65739 426.18586L489.65824 426.18583ZM479.24424 423.04573C477.77204 422.82048 476.02275 421.97993 475.35716 421.17784 474.31535 419.92265 474.96153 419.76844 479.99586 420.07075 485.08695 420.37648 486.15397 420.1129 488.22966 418.03736 490.17875 416.08827 490.54966 414.84007 490.26045 411.20387 489.885 406.48277 490.98085 405.15266 491.97663 409.12077 493.04264 413.36827 490.63444 419.65376 487.12013 421.79676 485.36064 422.86958 483.47093 423.68165 482.92094 423.60127 482.37095 423.52095 480.71644 423.2709 479.24415 423.04566L479.24424 423.04573ZM482.15196 414.83393C481.5754 412.62934 482.1252 411.7549 484.08775 411.7549 485.82936 411.7549 485.80155 414.1943 484.04325 415.6535 482.96244 416.5504 482.55467 416.37367 482.15196 414.83387V414.83393ZM398.42097 418.7549C398.42097 418.2049 397.97096 417.7549 397.42097 417.7549 396.87095 417.7549 396.42097 418.2049 396.42097 418.7549 396.42097 419.3049 396.87095 419.7549 397.42097 419.7549 397.97096 419.7549 398.42097 419.3049 398.42097 418.7549ZM428.91496 399.7489C427.91636 398.6455 426.86695 397.9752 426.58296 398.25923 426.29887 398.54328 426.93367 399.4317 427.99345 400.23353 430.69755 402.27934 431.04136 402.0985 428.91493 399.74888L428.91496 399.7489ZM510.74397 399.3106C512.9462 398.81889 514.06686 397.54783 515.8398 393.53053 517.9361 388.7806 518.0079 388.0331 516.7648 383.9024 514.63137 376.8136 510.79078 371.1464 505.86979 367.8254 503.36778 366.1368 501.09358 364.7553 500.81599 364.7553 500.5384 364.7553 498.4235 363.90937 496.11619 362.87553 491.7942 360.9388 486.75569 360.14424 472.9242 359.21794 468.52619 358.9234 462.3862 358.02384 459.28019 357.21894 451.86 355.29624 450.80528 355.30885 452.4586 357.3009 453.1641 358.15095 454.34419 358.6151 455.081 358.3323 455.81788 358.04957 456.4208 358.19947 456.4208 358.66548 456.4208 360.02668 461.4583 361.55287 467.8128 362.11717 471.05363 362.4049 474.2036 363.16056 474.8128 363.79637 475.64906 364.66923 473.34883 364.82395 465.42033 364.42829 459.64533 364.14006 453.61634 363.5805 452.02134 363.18489 450.06495 362.69935 449.33714 362.8125 449.78245 363.533 450.14524 364.1201 453.81214 365.6009 457.93104 366.82359 462.04994 368.0464 465.41993 369.43128 465.41993 369.9011 465.41993 371.37049 455.6559 370.83366 451.39894 369.13026 446.42433 367.13987 444.96614 368.17268 448.62495 371.09507 453.35676 374.87446 466.19496 380.97816 472.91996 382.64506 475.66996 383.3268 479.40815 384.75547 481.22715 385.81996 483.04606 386.88435 485.31864 387.75526 486.27726 387.75526 487.23588 387.75526 490.69767 389.90657 493.97007 392.53596 502.67778 399.53245 504.68708 400.79615 506.38908 400.34596 507.23094 400.1233 509.19007 399.65748 510.74278 399.31077L510.74397 399.3106ZM504.08757 394.0884C502.81178 392.81263 503.43968 391.79673 506.47407 390.2276 508.15336 389.35923 510.43638 387.7396 511.54768 386.6284L513.56808 384.6081 513.24447 387.3993C513.03 389.2497 511.77565 390.95979 509.52305 392.47279 505.89265 394.9113 505.13554 395.1363 504.08766 394.08839L504.08757 394.0884ZM502.96815 386.8315C502.65425 386.32359 503.721 384.96543 505.33894 383.81343 509.01594 381.19514 510.94633 383.10136 507.46925 385.91703 504.93586 387.9684 503.81196 388.1968 502.96815 386.83155V386.8315ZM533.92117 371.83253C536.67117 370.79374 541.39468 369.38133 544.41818 368.6939 553.94326 366.52793 563.8881 359.7553 557.5441 359.7553 556.5114 359.7553 555.13967 359.12037 554.49557 358.3443 552.8325 356.34049 554.6031 355.5131 559.7158 355.9049 568.8845 356.60749 576.29086 352.77473 587.8798 341.3299 593.2998 335.9775 592.82 334.491 586.6831 337.6218 584.1533 338.91239 582.2967 339.2966 581.3668 338.7219 579.679 337.6788 579.4976 337.87434 589.42117 330.0435 595.3021 325.40269 597.5574 322.844 599.86819 318.1905 601.48898 314.9263 602.97738 311.16529 603.17556 309.8327 603.3737 308.5001 603.96 306.6171 604.4785 305.6484 605.7081 303.3508 605.702 293.7554 604.47097 293.7554 603.9483 293.7554 601.81088 295.8929 599.72097 298.5054 588.07199 313.0674 572.001 325.7884 554.42098 334.3644 549.196 336.91304 543.79598 339.7706 542.42098 340.7146 541.04598 341.65858 537.67098 343.0154 534.92098 343.7297 525.84048 346.0885 517.06698 350.7557 521.71298 350.7557 523.47268 350.7557 545.60897 342.3111 551.86599 339.25273 558.56307 335.9793 569.626 329.7229 572.878 327.36973 574.3111 326.33274 575.7785 325.7791 576.1388 326.13945 577.1966 327.19725 565.3268 338.05143 560.4208 340.51243 557.9458 341.7539 553.6708 344.0306 550.9208 345.57164 545.5976 348.55473 532.85678 353.84355 525.4208 356.15763 521.3724 357.41725 521.22189 357.56645 523.9208 357.6447 525.5708 357.69258 529.3749 357.07865 532.37429 356.28044 535.37368 355.4822 538.0362 355.03755 538.29098 355.29228 538.92849 355.92979 538.7137 356.07569 531.9208 359.62028 526.79287 362.29609 526.3291 362.75148 528.7298 362.75328 532.8727 362.75645 531.148 364.38288 524.3875 366.84788 521.10586 368.04447 518.42086 369.41319 518.42086 369.88948 518.42086 370.36579 519.36776 371.70237 520.525 372.85969 522.9 375.23469 525.4279 375.0409 533.921 371.8328L533.92117 371.83253ZM517.42117 364.19624C517.42117 363.95368 516.7196 363.75526 515.8621 363.75526 515.00466 363.75526 514.5857 364.2126 514.9312 364.77156 515.502 365.69514 517.42117 365.2517 517.42117 364.19624ZM523.60867 363.0721C522.88687 362.78327 522.02426 362.8188 521.692 363.15107 521.35977 363.48338 521.9503 363.7197 523.0045 363.6763 524.16946 363.6283 524.40646 363.39137 523.60867 363.0721ZM499.42066 350.8941C509.15296 349.0254 518.7997 344.6731 525.26266 339.2351 529.08157 336.0217 532.23886 327.2951 530.55697 324.6011 529.9321 323.60063 529.42098 322.1914 529.42098 321.4694 529.42098 318.4472 513.39596 315.91 510.26795 318.4369 507.60835 320.5856 483.74995 327.62739 475.42097 328.7219 461.89295 330.4997 460.42097 330.8647 460.42097 332.4412 460.42097 333.6701 461.90507 333.79499 469.67097 333.21977 474.75846 332.8429 481.62098 331.91578 484.92097 331.15946 492.24348 329.48136 492.68446 329.46437 492.21318 330.87834 491.63249 332.6205 476.81419 336.5508 467.92118 337.32154 459.14857 338.08177 453.46018 340.19364 455.28019 342.01423 456.99638 343.7304 480.83518 343.10893 484.42219 341.25447 486.01698 340.4297 487.89079 339.75495 488.58598 339.75495 491.12876 339.75495 486.94239 342.51026 480.92127 344.79954 475.83247 346.73435 472.90928 347.09403 461.67127 347.16783 454.38398 347.2157 448.42826 347.47987 448.43629 347.75489 448.4986 349.81999 450.90119 350.8014 456.8245 351.18119 460.55979 351.42073 463.9095 351.92204 464.26829 352.2952 465.10447 353.16487 493.4853 352.0333 499.4203 350.8937L499.42066 350.8941ZM499.97065 343.9205C500.49317 343.4614 503.17066 342.2839 505.92066 341.3038 511.89067 339.17613 517.56167 335.6399 522.67068 330.8588L526.42068 327.3495V330.15919C526.42068 332.23808 525.12069 334.1894 521.42208 337.66178 517.37387 341.46247 515.31857 342.5829 510.61207 343.55509 503.85838 344.95008 498.59407 345.13099 499.97108 343.92076L499.97065 343.9205ZM508.17066 335.9783C507.20814 335.77494 506.42066 335.20066 506.42066 334.7022 506.42066 333.3573 514.30636 329.58073 516.24606 329.9967 517.47738 330.26075 517.07339 330.80583 514.72036 332.0555 512.96029 332.99034 511.16026 334.33863 510.72035 335.0517 510.28053 335.76475 509.13316 336.1818 508.17063 335.97837L508.17066 335.9783ZM543.99667 334.0918C549.6588 331.4996 549.75558 331.3894 547.61758 329.9698 544.0311 327.5885 545.05929 326.7552 551.58328 326.7552 556.79977 326.7552 558.5048 326.26805 562.6912 323.5814L567.63717 320.40769 564.02877 318.8462C562.04428 317.98735 560.4205 316.99299 560.4205 316.6366 560.4205 315.80784 564.2074 314.7865 567.3459 314.7689 568.6799 314.76139 572.9549 313.1649 576.8459 311.2212 582.50289 308.3952 584.4728 306.7778 586.6769 303.14909L589.4333 298.61109 584.2789 298.9332C576.58688 299.4139 577.061 297.336 585.12789 295.21189 594.5511 292.7306 598.2469 290.70518 603.80288 284.97789 609.4919 279.11338 613.42208 272.6649 614.41189 267.57188L615.1277 263.88777 610.6302 267.32188C606.1559 270.73829 601.8836 271.90827 602.6551 269.50599 602.87588 268.81849 605.20419 267.08128 607.8291 265.64558 611.0571 263.87998 613.4056 261.61448 615.0854 258.64558 616.4514 256.23127 618.3453 253.35597 619.29409 252.25597 620.243 251.15596 622.11666 247.55597 623.4579 244.25597 625.422 239.42366 625.8557 236.74507 625.6864 230.49198 625.4767 222.74747 624.75839 220.36397 621.2856 215.88898L619.44918 213.52248 617.55667 217.88898C610.8212 233.42998 603.6326 245.87097 595.6776 255.75498 585.3396 268.59999 567.74966 285.41297 554.4206 295.18898 550.8456 297.81108 547.6956 300.28916 547.4206 300.69596 546.9501 301.39189 537.5915 307.07286 530.3666 311.04795 528.07119 312.31095 527.42068 313.15476 528.167 313.90104 529.2555 314.98954 538.206 310.58164 547.101 304.57673 549.4001 303.02455 551.5026 301.7546 551.77316 301.7546 552.0437 301.7546 556.23776 298.801 561.093 295.191 571.382 287.5412 594.791 264.76203 598.421 258.868 600.9397 254.7783 603.421 253.48012 603.421 256.252 603.421 257.84074 595.7561 268.71504 592.09707 272.31703 590.89999 273.4955 588.908 274.9919 587.67056 275.6423 586.43307 276.2927 585.42056 277.3868 585.42056 278.0738 585.42056 279.6873 577.17996 287.6132 566.41757 296.3508 555.79458 304.9752 550.60659 308.5698 542.67056 312.8028 539.23306 314.63639 536.42056 316.7256 536.42056 317.44529 536.42056 319.16029 538.4329 319.05918 540.86178 317.2221 541.9294 316.41459 543.41348 315.7539 544.15969 315.7539 544.906 315.7539 549.5596 313.0539 554.50167 309.7539 563.7031 303.609 565.7656 302.6912 564.8176 305.1642 563.8457 307.6968 546.3236 319.71324 540.28567 321.9872 538.9968 322.47273 538.75607 323.544 539.14999 327.0393 539.5087 330.22233 539.16159 332.2207 537.92068 334.1146 535.75119 337.4256 536.7208 337.42179 543.99716 334.09056L543.99667 334.0918ZM473.42066 323.2228C477.54566 322.3814 482.72065 321.445 484.92066 321.1418 491.26017 320.26826 503.26466 315.69453 511.42066 311.0448 515.54568 308.6934 519.43026 306.7661 520.05307 306.7621 520.67587 306.758 522.92587 305.0344 525.05307 302.9319 527.18026 300.82939 529.7081 298.81849 530.67068 298.4633 531.6331 298.10813 532.42068 297.1284 532.42068 296.2861 532.42068 295.44386 532.87069 294.7547 533.42068 294.7547 533.97067 294.7547 534.42068 294.16969 534.42068 293.4547 534.42068 292.73973 534.92507 291.6503 535.54147 291.0339 537.71109 288.8644 541.41146 278.2069 541.416 274.1159 541.4229 267.9811 539.1676 265.8638 532.4206 265.6711 525.1942 265.4647 520.9926 266.92143 517.77059 270.7507 509.84318 280.1718 487.71656 293.7897 465.08558 303.1767 459.67668 305.4201 455.40168 307.7056 455.58558 308.25559 455.76948 308.80558 456.14497 309.16889 456.41999 309.06294 456.69496 308.95698 460.96998 307.45915 465.91999 305.7343 470.87 304.0095 478.848 300.6364 483.649 298.2384 493.12449 293.5055 496.072 293.8102 489.2081 298.81315 483.8511 302.71754 479.1011 305.19255 468.9351 309.37715 460.23689 312.95756 457.67909 315.46205 463.7225 314.48133 465.6865 314.1626 472.5213 312.0183 478.9105 309.7163 490.4625 305.5542 492.9115 305.25273 490.37849 308.3045 488.41908 310.6653 483.12229 313.0864 471.9195 316.7417 460.6885 320.4061 460.0965 320.75 460.9935 323.0884 461.78385 325.14793 463.8731 325.17063 473.4195 323.2235L473.42066 323.2228ZM515.42068 301.9468C515.42068 301.383 515.83419 300.7717 516.33938 300.5884 518.82168 299.6878 529.42037 289.20643 529.42037 287.6524 529.42037 286.6737 529.87039 285.59483 530.42037 285.2549 530.97036 284.91499 531.42037 282.3804 531.42037 279.62254 531.42037 275.38725 531.69229 274.65983 533.17037 274.94023 534.42587 275.17835 535.00259 276.40003 535.21109 279.26353 535.6079 284.71333 531.20327 293.09153 525.42037 297.88554 520.86898 301.65913 515.42037 303.87174 515.42037 301.94624L515.42068 301.9468ZM517.42068 291.8588C517.42068 290.9657 524.03897 284.7552 524.99069 284.7552 526.0005 284.7552 523.12319 289.30659 521.05368 290.983 518.6799 292.9058 517.42068 293.2094 517.42068 291.85884V291.8588ZM461.42066 298.9727C469.58778 296.8219 485.33366 288.23069 498.42066 278.78569 501.44566 276.6024 504.85237 274.3943 505.99116 273.87867 508.84626 272.58598 517.60018 262.29869 520.9451 256.30668 524.39718 250.12157 526.3939 242.76668 526.4093 236.17867 526.41897 232.07357 525.95187 230.66207 523.9666 228.79706 521.8972 226.85295 520.7597 226.57086 516.7166 226.99906 508.78553 227.83904 504.5346 230.28066 497.38664 238.10205 487.79933 248.59206 468.49363 262.84605 451.42164 272.04005 444.98335 275.50715 443.69425 277.54344 448.31703 276.94395 451.815 276.4903 462.70603 270.75376 472.23603 264.34596 476.80873 261.27095 480.74623 258.75517 480.98603 258.75517 481.22584 258.75517 481.42207 259.56269 481.42207 260.54966 481.42207 263.35017 472.81208 269.37736 456.49107 278.00166 452.22148 280.25785 450.05787 282.75465 452.37236 282.75465 453.96257 282.75465 461.69526 278.71876 470.37635 273.35774 474.47605 270.82603 478.26567 268.75465 478.79765 268.75465 479.32963 268.75465 480.54316 268.05033 481.49433 267.18946 482.44825 266.3262 483.4814 266.04118 483.7983 266.55384 485.0476 268.57514 463.04133 283.94786 455.6723 286.20085 454.3525 286.60453 453.4223 287.68806 453.4223 288.82164 453.4223 289.88453 453.6104 290.7542 453.8402 290.7542 454.33119 290.7542 472.5362 282.77543 480.2912 279.16123 483.2443 277.78504 485.8768 276.87553 486.1414 277.14015 487.3916 278.39036 484.04328 280.51875 470.0474 287.37016 456.1974 294.15037 454.8674 295.03477 454.27839 297.86116 453.5725 301.24705 453.07688 301.16996 461.4217 298.97245L461.42066 298.9727ZM503.04167 265.95069C502.74595 265.4721 504.32347 263.3199 506.54725 261.1681 511.78575 256.099 514.63308 250.4881 515.12979 244.25609 515.85897 235.1034 519.37698 235.87209 519.4059 245.19036 519.4229 250.65296 516.7218 257.24537 513.16238 260.42835 509.54646 263.66197 503.62416 266.89375 503.04136 265.95124L503.04167 265.95069ZM506.91197 251.10768C508.90657 246.31438 511.07167 243.99968 512.3456 245.29859 513.39608 246.36959 508.77418 253.81308 506.61509 254.52759 505.61973 254.85697 505.69029 254.04361 506.91203 251.10768H506.91197ZM552.17697 290.5077 562.7089 282.2601 559.01516 281.22383C555.09817 280.12483 555.1605 278.7554 559.12789 278.7554 562.49337 278.7554 572.44589 273.3563 576.17788 269.5057L579.33059 266.25303 574.7469 266.07563C567.5418 265.79679 567.8511 264.39704 575.69058 261.80543 583.59487 259.19233 587.1636 256.4229 594.02059 247.58142 599.22909 240.86522 599.6377 239.07482 595.47048 241.22983 592.51589 242.75772 587.4208 243.31842 587.4208 242.11576 587.4208 241.11777 590.7693 238.82265 592.27688 238.78736 593.76589 238.75244 600.8926 233.42336 603.6849 230.25646 605.74569 227.91956 613.4203 212.45246 613.4203 210.63646 613.4203 209.95522 613.9566 207.91477 614.61209 206.10196 616.17489 201.78026 615.37557 201.20316 611.2831 203.69817 606.4178 206.66437 604.6087 206.29396 607.9012 203.0058 612.2228 198.6897 616.4203 188.8808 616.4203 183.0978 616.4203 172.9498 610.62179 157.0078 606.8594 156.8118 606.2759 156.78137 605.21188 159.119 604.49508 162.0065 600.5676 177.8265 593.21609 194.4445 580.93807 215.2565 573.83108 227.3025 567.46206 235.3695 554.353 248.9255 548.9191 254.5449 544.6782 259.3475 544.92886 259.5975 546.45877 261.1274 568.8928 239.7305 576.2218 229.7515 578.0376 227.27919 582.2022 221.6563 585.4765 217.2565 588.7508 212.8565 593.02896 205.9455 594.9832 201.8975 596.9376 197.85031 598.7556 194.7579 599.0232 195.02552 600.21139 196.21372 593.4414 210.24251 586.6062 220.75652 577.7648 234.35552 571.5452 241.83551 558.1582 254.96752 552.5058 260.51243 548.4008 265.3275 548.5897 266.19053 548.80838 267.1896 552.45126 264.31474 559.32577 257.71784 565.0485 252.22614 569.93478 247.93724 570.18478 248.18694 571.3992 249.40134 563.20956 258.56895 552.1547 268.36994 549.56307 270.66764 548.45248 272.63285 547.9165 275.86994 547.51718 278.28254 546.3422 282.02845 545.3056 284.19425 544.269 286.36006 543.4208 288.63514 543.4208 289.24995 543.4208 289.86479 542.2958 291.89274 540.9208 293.75645 535.0711 301.68525 539.55728 300.39094 552.17678 290.50886L552.17697 290.5077ZM549.07089 277.99769C548.5554 277.16374 557.45809 267.75468 558.76248 267.75468 560.44839 267.75468 559.11038 270.64848 556.17056 273.36067 551.2717 277.88008 549.6519 278.93806 549.07077 277.99757L549.07089 277.99769ZM537.2649 256.3357C540.2447 254.7948 556.4209 238.2477 556.4209 236.74069 556.4209 236.233 555.7459 236.07665 554.9209 236.39322 554.0959 236.70983 553.4209 237.32569 553.4209 237.76183 553.4209 238.19799 551.8459 238.55484 549.9209 238.55484 547.9959 238.55484 546.4209 238.43856 546.4209 238.29642 546.4209 237.75188 557.0889 231.07141 560.4569 229.50672 562.40176 228.60326 565.1054 226.60202 566.4651 225.05942 570.0809 220.95752 576.7011 210.70142 576.11239 210.11342 575.83419 209.83528 574.2372 210.3159 572.56338 211.18141 570.8895 212.04697 568.26028 212.75492 566.72048 212.75461 564.25686 212.7541 564.67807 212.28824 570.23007 208.87322 573.70016 206.73882 577.55416 204.03902 578.79458 202.87381 580.03488 201.7086 581.556 200.7552 582.1749 200.7552 583.3472 200.7552 591.0313 186.94121 592.0571 182.9902L592.64517 180.7251 587.63778 183.2402C579.32119 187.4174 577.4258 186.0469 584.9462 181.29361 591.073 177.42092 595.58126 169.66062 598.8192 157.41661 602.7835 142.42362 602.4387 141.39261 595.4207 147.25562 589.6273 152.09592 586.9124 151.91982 591.5659 147.00562 599.18026 138.96472 603.4209 130.30461 603.4209 122.796619 603.4209 116.63571 598.3587 104.657619 592.62789 97.257617 589.48928 93.20502 586.66439 89.859218 586.3503 89.82262 586.03628 89.78595 585.70217 92.343418 585.608 95.50592 585.23196 108.12392 581.02377 134.93492 578.74118 139.25592 578.16 140.35593 577.38357 143.05593 577.01577 145.25592 576.0499 151.03342 577.9244 147.77103 580.02096 140.02582 580.95437 136.57743 582.04617 133.75592 582.44686 133.75592 585.36209 133.75592 576.52346 161.69792 568.37088 178.25592 561.41769 192.37792 547.04788 214.39092 538.59689 223.86592 535.34237 227.51512 534.43569 229.22702 534.93099 230.78772 535.4887 232.54482 535.8291 232.66242 537.16189 231.5585 539.08816 229.963 551.15786 215.4745 554.2839 211.00551 555.53408 209.218 556.95309 207.75551 557.43698 207.75551 558.73916 207.75551 556.61776 213.16712 554.36959 215.58022 553.2978 216.73062 552.42086 217.96791 552.42086 218.32971 552.42086 219.7214 545.32388 228.50072 539.95089 233.7557 534.42739 239.1577 530.7604 244.42871 531.8014 245.46971 532.3618 246.03014 539.2437 240.87992 541.3899 238.294 542.0918 237.44821 543.0768 236.75621 543.5789 236.75621 545.4389 236.75621 541.8875 241.45972 534.7583 248.43822 530.7229 252.38822 527.4212 256.10063 527.4212 256.68824 527.4212 258.23585 534.0509 257.99934 537.2654 256.3371L537.2649 256.3357ZM536.3861 220.8227C537.4894 218.65999 538.8559 216.6039 539.4228 216.25359 540.42959 215.63138 557.5508 190.23558 558.29879 188.25458 558.5065 187.70458 560.3036 184.55458 562.29238 181.25458 567.06356 173.33759 576.5494 151.77059 575.79537 150.55158 575.46957 150.02442 573.73519 153.11698 571.94107 157.42388 562.9655 178.97087 548.439 202.71588 535.55508 216.90187 532.8461 219.88457 531.4111 222.28678 531.7737 223.23148 532.745 225.76268 534.2727 224.96468 536.3861 220.82198V220.8227Z" fill="#f5f5dc"/>
</g>
<g clip-path="url(#clip_3)">
<text fill="#f8f9f0" xml:space="preserve" transform="matrix(.75 0 0 .75 108.04933 123.00174)" font-size="25.33" font-family="Montserrat"><tspan y="26" x="63.359376 82.6599 108.54573 127.84625">AMAN</tspan></text>
<text fill="#7f7f7f" fill-opacity=".4" xml:space="preserve" transform="matrix(.55391028 0 0 .55391028 104.749248 146.36931)" font-size="12" font-family="LexendMega"><tspan y="13" x="86.203128 99.343189 114.45126 127.19533 141.6794 153.93146 165.82352 180.9316 196.23168">SOLUTIONS</tspan></text>
<text fill="#f8f9f0" xml:space="preserve" transform="matrix(.55391028 0 0 .55391028 104.749248 146.36931)" font-size="12" font-family="LexendMega"><tspan y="13" x="86.203128 99.343189 114.45126 127.19533 141.6794 153.93146 165.82352 180.9316 196.23168">SOLUTIONS</tspan></text>
</g>
<path transform="matrix(1,0,0,-1,0,383.03999)" d="M112.5 162.86336H262.5V269.8345H112.5Z" fill-opacity="0"/>
</svg>
